<svg width="46" height="46" viewBox="0 0 46 46" fill="none" xmlns="http://www.w3.org/2000/svg">
<rect width="46" height="46" rx="8" fill="#0A117F" fill-opacity="0.08"/>
<path d="M31.4545 26.6465L30.3486 24.8005C29.9526 24.1405 29.7445 23.3855 29.7445 22.6165V19.9895C29.7445 16.2735 26.7186 13.2495 22.9996 13.2495C19.2806 13.2495 16.2545 16.2725 16.2545 19.9895V22.6165C16.2545 23.3855 16.0455 24.1405 15.6505 24.8005L14.5446 26.6465C14.1596 27.2875 14.1506 28.0595 14.5186 28.7095C14.8876 29.3615 15.5545 29.7505 16.3035 29.7505H20.2835C20.2755 29.8345 20.2505 29.9155 20.2505 30.0005C20.2505 31.5175 21.4835 32.7505 23.0005 32.7505C24.5175 32.7505 25.7505 31.5175 25.7505 30.0005C25.7505 29.9155 25.7255 29.8345 25.7175 29.7505H29.6976C30.4466 29.7505 31.1145 29.3615 31.4825 28.7104C31.8495 28.0594 31.8395 27.2875 31.4545 26.6465ZM24.2485 30.0005C24.2485 30.6895 23.6875 31.2505 22.9985 31.2505C22.3095 31.2505 21.7485 30.6895 21.7485 30.0005C21.7485 29.9155 21.7646 29.8325 21.7816 29.7505H24.2155C24.2325 29.8325 24.2485 29.9155 24.2485 30.0005ZM30.1755 27.9705C30.1275 28.0545 29.9866 28.2495 29.6956 28.2495H16.3015C16.0115 28.2495 15.8695 28.0545 15.8215 27.9705C15.7745 27.8865 15.6795 27.6655 15.8285 27.4175L16.9346 25.5715C17.4706 24.6785 17.7525 23.6565 17.7525 22.6165V19.9895C17.7525 17.1005 20.1055 14.7495 22.9975 14.7495C25.8895 14.7495 28.2425 17.1005 28.2425 19.9895V22.6165C28.2425 23.6565 28.5255 24.6785 29.0605 25.5715L30.1665 27.4175C30.3165 27.6655 30.2225 27.8865 30.1755 27.9705Z" fill="#212E7E"/>
</svg>
