<svg width="46" height="46" viewBox="0 0 46 46" fill="none" xmlns="http://www.w3.org/2000/svg">
<rect width="46" height="46" rx="8" fill="#0A117F" fill-opacity="0.08"/>
<path d="M29.0605 18.4688L22.4336 34.7812H25.1093L26.4964 31.4961H31.6247L33.0118 34.7812H35.6875L29.0605 18.4688ZM27.5488 29.0039L29.0605 24.3509L30.5723 29.0039H27.5488Z" fill="#212E7E"/>
<path d="M23.9062 26.625C23.8921 26.6142 22.74 25.7318 21.3336 24.2081C23.5755 21.1699 24.8454 17.7166 25.3636 16.0898H28.4375V13.5977H20.6211V11.2188H18.1289V13.5977H10.3125V16.0898H22.731C22.1917 17.6163 21.1988 20.0264 19.6843 22.2274C17.8332 19.767 17.0142 17.9295 17.0035 17.9103L16.5996 17.1094L14.4473 18.3555L14.8364 19.1405C14.8868 19.2289 15.81 21.2872 17.9352 24.0439C17.9873 24.1124 18.04 24.1793 18.0927 24.2461C15.2765 27.4667 13.0431 28.7258 13.0143 28.7473L12.125 29.3438L13.4277 31.3828L14.5209 30.7331C14.6455 30.6386 16.8619 29.3738 19.7318 26.1577C21.1207 27.6462 22.1798 28.4704 22.241 28.5179L22.9434 29.0039L23.9062 26.625Z" fill="#212E7E"/>
</svg>
