<svg width="46" height="46" viewBox="0 0 46 46" fill="none" xmlns="http://www.w3.org/2000/svg">
<rect width="46" height="46" rx="8" fill="#0A117F" fill-opacity="0.08"/>
<path d="M23.0001 22.5199C22.2801 22.5199 21.8001 22.9999 21.8001 23.7199C21.8001 24.1999 22.1601 24.5599 22.5201 24.6799L22.1601 26.3599H23.7201L23.3601 24.6799C23.8401 24.5599 24.0801 24.1999 24.0801 23.7199C24.2001 22.9999 23.7201 22.5199 23.0001 22.5199ZM23.1201 17.3599C22.2801 17.3599 21.4401 17.9599 21.4401 18.7999V20.5999H24.6801V18.7999C24.5601 17.9599 23.9601 17.3599 23.1201 17.3599ZM23.0001 13.3999L14.6001 16.9999V20.5999C14.7201 25.8799 18.0801 30.5599 23.0001 32.4799C27.9201 30.5599 31.2801 25.8799 31.4001 20.5999V16.9999L23.0001 13.3999ZM27.8001 26.5999C27.8001 27.3199 27.3201 27.7999 26.6001 27.7999H19.4001C18.6801 27.7999 18.2001 27.3199 18.2001 26.5999V21.7999C18.2001 21.0799 18.6801 20.5999 19.4001 20.5999H19.7601V18.7999C19.8801 17.1199 21.3201 15.7999 23.0001 15.7999C24.6801 15.7999 26.1201 17.1199 26.2401 18.7999V20.5999H26.6001C27.3201 20.5999 27.8001 21.0799 27.8001 21.7999V26.5999Z" fill="#212E7C"/>
</svg>
