<svg width="46" height="46" viewBox="0 0 46 46" fill="none" xmlns="http://www.w3.org/2000/svg">
<rect width="46" height="46" rx="8" fill="#0A117F" fill-opacity="0.08"/>
<path d="M28.625 20.1019V17.375C28.625 14.2734 26.1016 11.75 23 11.75C19.8984 11.75 17.375 14.2734 17.375 17.375V20.1019C15.3916 20.9727 14 22.9494 14 25.25V28.625C14 31.7266 16.5234 34.25 19.625 34.25H26.375C29.4766 34.25 32 31.7266 32 28.625V25.25C32 22.9494 30.6084 20.9727 28.625 20.1019ZM19.625 17.375C19.625 15.5142 21.1392 14 23 14C24.8608 14 26.375 15.5142 26.375 17.375V19.625H19.625V17.375ZM29.75 28.625C29.75 30.4857 28.2358 32 26.375 32H19.625C17.7642 32 16.25 30.4857 16.25 28.625V25.25C16.25 23.3892 17.7642 21.875 19.625 21.875H26.375C28.2358 21.875 29.75 23.3892 29.75 25.25V28.625ZM24.125 26.375V27.5C24.125 28.1221 23.621 28.625 23 28.625C22.379 28.625 21.875 28.1221 21.875 27.5V26.375C21.875 25.7529 22.379 25.25 23 25.25C23.621 25.25 24.125 25.7529 24.125 26.375Z" fill="#212E7E"/>
</svg>
