<?xml version="1.0" standalone="no"?><svg xmlns="http://www.w3.org/2000/svg" viewBox="0 0 1440 320"><path fill="#41416E" fill-opacity="1" d="M0,64L30,80C60,96,120,128,180,133.3C240,139,300,117,360,101.3C420,85,480,75,540,85.3C600,96,660,128,720,133.3C780,139,840,117,900,106.7C960,96,1020,96,1080,85.3C1140,75,1200,53,1260,42.7C1320,32,1380,32,1410,32L1440,32L1440,0L1410,0C1380,0,1320,0,1260,0C1200,0,1140,0,1080,0C1020,0,960,0,900,0C840,0,780,0,720,0C660,0,600,0,540,0C480,0,420,0,360,0C300,0,240,0,180,0C120,0,60,0,30,0L0,0Z"></path></svg>